Coordinates
version=1
nRows=8
nColumns=34
inDegrees=yes

Units are S.I. units (second, meters, Newtons, ...)
If the header above contains a line with 'inDegrees', this indicates whether rotational values are in degrees (yes) or radians (no).

endheader
time	pelvis_tilt	pelvis_list	pelvis_rotation	pelvis_tx	pelvis_ty	pelvis_tz	hip_flexion_r	hip_adduction_r	hip_rotation_r	knee_angle_r	ankle_angle_r	subtalar_angle_r	mtp_angle_r	hip_flexion_l	hip_adduction_l	hip_rotation_l	knee_angle_l	ankle_angle_l	subtalar_angle_l	mtp_angle_l	lumbar_extension	lumbar_bending	lumbar_rotation	arm_flex_r	arm_add_r	arm_rot_r	elbow_flex_r	pro_sup_r	arm_flex_l	arm_add_l	arm_rot_l	elbow_flex_l	pro_sup_l
      7.90000000	     -8.04308145	      3.65551221	      1.41964927	     -0.02262461	      0.41303058	     -0.27841564	    107.42451567	     -2.19875690	    -10.56193882	     61.24997998	     -1.62283108	     -1.89532226	      0.00000000	    103.15920273	    -16.31514767	    -26.21052881	     73.55537204	      4.61351761	     -1.02824158	      0.00000000	    -52.53353402	     15.52689829	      8.66338443	     61.50649170	    -18.90614971	     12.57506052	     45.16359809	     82.47461410	    119.13760687	     12.26118632	     12.08247503	     66.68145984	     66.03552744
      7.91666670	     -7.83903714	      3.61136843	      1.41757342	     -0.02297026	      0.41133622	     -0.28290581	    108.00720110	     -3.00103904	    -11.08688235	     62.12024248	     -1.74965446	     -0.37914514	      0.00000000	    104.32647624	    -16.22323735	    -26.00022142	     75.04107029	      7.34582247	      0.49412714	      0.00000000	    -51.00570951	     16.50805254	      7.70483919	     56.29979529	    -18.40865339	     10.30622196	     47.48888374	     86.89922199	    115.42472599	     11.81323110	     11.81218133	     67.15641595	     66.93210672
      7.93333330	     -7.62466594	      3.84227004	      1.50953545	     -0.02558263	      0.41634369	     -0.28687232	    107.71300658	     -3.74895027	    -10.58328829	     62.29958335	     -1.84169672	      0.24226619	      0.00000000	    103.61079833	    -15.47003965	    -26.50944794	     74.90620826	      7.62995041	      0.55670938	      0.00000000	    -49.94032295	     17.10354928	      6.60217083	     52.92654206	    -18.62642007	     10.24099172	     47.08068206	     87.78558579	    112.78784487	     11.59413474	     12.42458251	     66.06783437	     67.21010469
      7.95000000	     -6.03850711	      3.96193816	      1.29148910	     -0.03990587	      0.42432440	     -0.28588469	    105.09363835	     -3.67935681	    -10.58343754	     59.55017974	     -3.54204911	      1.43050722	      0.00000000	    100.80466792	    -14.79057866	    -26.79304255	     73.23745137	      7.82422409	      0.45636676	      0.00000000	    -50.79469717	     17.30790976	      5.77445309	     49.53141318	    -18.58287585	      9.63710327	     48.51211089	     92.27666613	    111.58951914	     11.22525016	     13.08264331	     63.38566507	     68.80111677
      7.96666670	     -4.50263351	      4.15197366	      1.19345625	     -0.04777905	      0.43204769	     -0.28482011	    102.16438888	     -3.49433369	    -10.42609048	     56.51615704	     -5.41753088	      1.54441980	      0.00000000	     97.90426628	    -13.98601917	    -27.19572699	     70.80402002	      6.90148244	     -0.66076142	      0.00000000	    -51.55796663	     17.61429714	      4.26349869	     46.81365356	    -17.94451184	      9.94606387	     48.67511612	     92.84110010	    109.74466251	     10.19331872	     12.70908945	     62.82941904	     68.98065575
      7.98333330	     -1.95019096	      4.32502423	      1.06041284	     -0.06429327	      0.43360792	     -0.27919464	     98.15257879	     -2.92058159	    -10.14620937	     52.87874680	     -7.31806142	      1.48653679	      0.00000000	     94.34122902	    -13.48572206	    -27.37038237	     68.36949971	      4.35919543	     -1.93139218	      0.00000000	    -53.69633029	     17.18147091	      2.51930559	     45.02348881	    -16.82530636	     10.25330526	     48.94199687	     94.05076384	    110.02420632	      8.99523658	     14.36978514	     60.09930107	     69.55445702
      8.00000000	      0.23211899	      4.69988906	      0.55719109	     -0.07594812	      0.44490519	     -0.27928679	     94.26908969	     -2.29938353	     -9.93066110	     49.82728425	     -9.34143868	     -0.08016774	      0.00000000	     91.09174970	    -12.99606444	    -27.75923673	     65.54522268	      1.28924360	     -3.89832969	      0.00000000	    -55.44827040	     16.64675506	      1.03074271	     43.80181227	    -16.06028166	      9.96686365	     49.38102994	     95.13102680	    109.40671868	      7.78177101	     15.68427714	     57.89231716	     70.06749326
      8.01666670	      2.05573040	      4.79492655	     -0.14116958	     -0.08283471	      0.45089239	     -0.27750669	     91.14862207	     -1.31871897	     -9.62237828	     47.75270872	    -10.28352059	     -1.57038242	      0.00000000	     88.39595120	    -13.01562628	    -27.95909610	     63.55709246	     -0.75250403	     -5.50887840	      0.00000000	    -56.63243804	     16.14409735	      0.37765760	     41.42068816	    -15.79420538	     10.07225580	     49.23330641	     95.51902522	    107.29904107	      7.49426328	     15.83195114	     57.03245444	     70.21761777
